<svg xmlns="http://www.w3.org/2000/svg" width="42" height="37"><path d="M3.2 27.3C0 26.9 0.1 23.9 0.1 20.4 0.1 16.5 0.1 12.7 0.1 8.8 0.1 7.2-0.1 5 0.2 3.5 0.2 3.3 0.2 3.1 0.2 2.9 1.2-0.4 4.4 0.1 8.5 0.1 15.2 0.1 21.9 0.1 28.6 0.1 32 0.1 36.2-0.4 37.7 1.5 38.4 2.6 38.4 4.2 38.4 6 38.4 6.6 38.4 7.1 38.4 7.6 38.8 9.1 38.9 10.8 39.3 12.4 40.1 16.9 40.9 21.4 41.8 25.9 42.2 27.6 42 29.8 40.9 30.7 39 32.1 35.4 32 32.8 32.6 31.4 33 29.9 33 28.4 33.4 24 34.6 19.1 34.8 14.7 35.9 14 36 13.4 36.1 12.7 36.2 10.9 36.7 7.6 37.5 6 36.5 4.1 35.4 4.5 33.5 3.9 31.1 3.6 30 3.2 28.6 3.2 27.3ZM2 6.5C13.5 6.5 25.1 6.5 36.6 6.5 36.6 4.9 36.8 2.9 35.9 2.3 34.8 1.6 30.6 2 28.8 2 22.8 2 16.7 2 10.6 2 8.8 2 7 2 5.2 2 4.6 2 3.5 1.8 3.1 2.1 1.7 2.5 2 4.6 2 6.5ZM2 11C2 14.6 2 18.1 2 21.6 2 23.3 1.8 24.9 3 25.4 3.4 25.7 4.3 25.6 5.1 25.6 6.7 25.6 8.3 25.6 9.9 25.6 16.2 25.6 22.6 25.6 28.9 25.6 31.2 25.6 35.5 26.1 36.3 24.8 36.8 24 36.6 22 36.6 20.9 36.6 17.6 36.6 14.3 36.6 11 25.1 11 13.5 11 2 11ZM6.6 13.8C11.4 13.8 16.3 13.8 21.1 13.8 21.1 14.4 21.1 15 21.1 15.5 20.1 15.9 17.8 15.6 16.6 15.6 13.3 15.6 9.9 15.6 6.6 15.6 6.6 15 6.6 14.4 6.6 13.8ZM38.4 17.9C38.4 18 38.4 18 38.4 18.1 38.4 18.1 38.4 18.1 38.4 18.1 38.4 17.9 38.4 18 38.4 17.9ZM5.1 27.4C5 28.2 5.3 29.1 5.5 29.8 5.7 30.7 5.7 31.7 6 32.6 6.3 33.7 6.2 34.5 7 35 7.7 35.4 9.6 35 10.3 34.8 12.9 34.1 15.9 34 18.5 33.3 19.8 33 21 33.1 22.3 32.7 26.1 31.7 30.4 31.5 34.2 30.5 35.8 30.1 39.1 30.2 39.9 29.1 40.2 28.6 40.3 27.9 40.1 27.2 39.8 25.7 39.6 24 39.2 22.5 39 21.5 38.9 18.8 38.4 18.1 38.5 21.3 38.9 25.3 37.1 26.6 35.4 27.9 30.8 27.4 27.9 27.4 20.3 27.4 12.7 27.4 5.1 27.4Z"/></svg>