<svg xmlns="http://www.w3.org/2000/svg" width="68" height="39"><path d="M16.2 0C30.5 0 44.9 0 59.2 0 59.2 4.5 59.2 9.1 59.2 13.6 61.1 13.6 63 13.6 64.9 13.6 66.1 13.6 67.1 13.6 67.7 14.3 68 14.8 68 15.5 68 16.3 68 17.6 68 18.8 68 20.1 68 24.4 68 28.8 68 33.2 68 34.3 68 35.3 68 36.4 68 36.9 68.1 37.5 67.9 37.9 67.7 38.4 67.3 38.6 67 38.9 63.7 38.9 60.4 38.9 57 38.9 55.9 38.9 54 39.2 53.5 38.5 52.9 37.8 53.1 36.4 53.1 35.1 53.1 32.6 53.1 30.1 53.1 27.6 43.5 27.6 33.9 27.6 24.3 27.6 24.3 30.1 24.3 32.7 24.3 35.2 24.3 36.7 24.4 38 23.6 38.6 22.7 39.2 20.1 38.9 18.6 38.9 14.3 38.9 10.1 38.9 5.9 38.9 4.2 38.9 1.3 39.3 0.6 38.3 -0.3 37.2 0.1 33.5 0.1 31.5 0.1 25.7 0.1 19.9 0.1 14.1 0.1 12.6 0.1 11.2 0.1 9.7 0.1 8.5 0.1 7.5 0.7 6.9 1.5 6 3.4 6.3 5 6.3 8.8 6.3 12.5 6.3 16.2 6.3 16.2 4.2 16.2 2.1 16.2 0ZM17.6 1.4C17.6 3 17.6 4.7 17.6 6.3 19.5 6.3 23 5.9 23.8 7 24.6 8.1 24.3 10.7 24.3 12.5 24.3 17.1 24.3 21.6 24.3 26.2 33.9 26.2 43.5 26.2 53.1 26.2 53.1 23.4 53.1 20.6 53.1 17.7 53.1 16.4 52.9 14.9 53.5 14.1 54.2 13.3 56.3 13.6 57.8 13.6 57.8 9.5 57.8 5.5 57.8 1.4 44.4 1.4 31 1.4 17.6 1.4ZM2 7.7C1.9 7.7 1.9 7.7 1.8 7.7 1.7 7.9 1.6 8 1.5 8.1 1.5 14.7 1.5 21.3 1.5 27.9 1.5 30 1.5 32 1.5 34.1 1.5 35.1 1.4 36.5 1.6 37.4 2.4 37.8 5.1 37.6 6.3 37.6 10.2 37.6 14.1 37.6 18 37.6 19.1 37.6 20.3 37.6 21.5 37.6 22.1 37.6 22.6 37.7 22.8 37.2 23.1 36.8 22.9 35.7 22.9 35.2 22.9 33.3 22.9 31.5 22.9 29.7 22.9 25 22.9 20.2 22.9 15.5 22.9 13.9 22.9 12.4 22.9 10.9 22.9 9.9 23 8.9 22.9 8.1 22.7 7.9 22.7 7.8 22.3 7.7 22 7.6 21.2 7.7 20.8 7.7 19.5 7.7 18.2 7.7 16.9 7.7 11.9 7.7 6.9 7.7 2 7.7ZM54.7 15C54.4 15.4 54.5 16.3 54.5 17 54.5 18.4 54.5 19.9 54.5 21.3 54.5 26.7 54.5 32.1 54.5 37.5 54.6 37.6 54.7 37.6 54.7 37.7 57.6 37.7 60.5 37.7 63.4 37.7 64 37.7 66.1 37.9 66.5 37.6 66.7 37.3 66.6 36.5 66.6 36.1 66.6 34.7 66.6 33.3 66.6 31.9 66.6 26.3 66.6 20.8 66.6 15.2 66.5 15.1 66.5 15.1 66.4 15 62.5 15 58.6 15 54.7 15ZM58.9 16.9C59.7 16.9 60.5 16.9 61.3 16.9 61.7 16.9 62.2 16.9 62.4 17 62.6 17.2 62.6 17.3 62.6 17.6 62.6 17.7 62.6 17.6 62.6 17.7 61.9 18.1 60.7 18 59.7 18 59.2 18 58.7 18 58.5 17.6 58.3 17.3 58.7 17.1 58.9 16.9ZM48.6 34.9C41.2 34.9 33.7 34.9 26.2 34.9 26.2 34.4 26.2 34 26.2 33.5 26.8 33.3 27.7 33.5 28.4 33.5 29.9 33.5 31.5 33.5 33.1 33.5 38.2 33.5 43.4 33.5 48.6 33.5 48.7 33.8 48.6 34.4 48.6 34.9ZM12 33.8C13.2 33.7 13.5 34.6 13.2 35.6 13 35.8 12.7 36 12.6 36.1 11.5 36.2 11.6 35.9 11.1 35.4 11 34.3 11.2 34.3 11.8 33.8 11.9 33.8 12 33.8 12 33.8Z"/></svg>