<svg xmlns="http://www.w3.org/2000/svg" width="38" height="38"><path d="M1.9 0C8.5 0 15.1 0 21.7 0 23.4 0 25 0 26.7 0 27.8 0 28.7 0 29.3 0.4 30.7 1.4 30.3 5.8 30.3 8.3 30.2 8.3 30.2 8.3 30.1 8.3 29.8 7.9 28.9 7.2 28.7 6.9 28.7 5.3 28.7 3.7 28.7 2.1 28.6 2 28.6 1.9 28.6 1.8 28 1.5 27 1.6 26.2 1.6 24.5 1.6 22.7 1.6 21 1.6 14.7 1.6 8.3 1.6 2 1.6 1.9 1.7 1.6 1.8 1.6 1.9 1.6 2.8 1.6 3.7 1.6 4.6 1.6 6.8 1.6 8.9 1.6 11.1 1.6 19.4 1.6 27.7 1.6 36 1.7 36 1.6 36 1.7 36.1 1.8 36.2 1.9 36.3 2 36.4 8 36.4 13.9 36.4 19.8 36.4 21.7 36.4 23.5 36.4 25.3 36.4 26.4 36.4 27.7 36.4 28.5 36.2 29 35.2 28.7 32.5 28.7 31.1 29.2 30.6 29.7 30.1 30.3 29.6 30.3 31.7 30.3 33.8 30.3 35.9 30.2 36 30.2 36.3 30.1 36.4 29.9 36.9 29.4 37.5 29 37.7 28.5 38 27.6 37.9 26.9 37.9 25.6 37.9 24.2 37.9 22.9 37.9 18 37.9 13.1 37.9 8.2 37.9 6.4 37.9 2 38.2 1 37.5 0.7 37.3 0.3 36.8 0.1 36.4 -0.1 35.7 0.1 34.7 0.1 33.9 0.1 32.1 0.1 30.4 0.1 28.6 0.1 21.9 0.1 15.3 0.1 8.6 0.1 7 0.1 5.3 0.1 3.6 0.1 2.8 0 1.8 0.3 1.2 0.4 0.9 0.9 0.4 1.2 0.2 1.5 0.1 1.7 0.1 1.9 0ZM28.5 9.9C29.5 9.9 30.4 11.3 31 11.9 32.6 13.6 34.3 15.2 36 16.9 36.4 17.4 37.8 18.5 38 19 35.8 21.3 33.5 23.5 31.3 25.7 30.7 26.3 29.5 28 28.4 28 28.4 28 28.4 28 28.3 28 28.1 27.6 27.9 27.6 27.9 27 28.2 26.7 28.5 26.3 28.8 26 28.8 26 28.9 26 28.9 26 29 26 29 25.8 29.1 25.8 29.1 25.8 29.2 25.8 29.2 25.8 29.2 25.7 29.2 25.7 29.2 25.6 29.2 25.6 29.3 25.6 29.3 25.6 29.3 25.6 29.3 25.5 29.3 25.5 30.4 24.4 31.5 23.4 32.6 22.4 32.6 22.3 32.6 22.2 32.7 22.1 32.8 22.1 32.8 22.1 32.9 22.1 32.9 22 32.9 22 32.9 21.9 32.9 21.9 33 21.9 33 21.9 33.5 21.4 34 20.8 34.5 20.3 34.7 20.1 34.9 20 35 19.7 27.6 19.7 20.2 19.7 12.7 19.7 12.6 19.7 12.5 19.6 12.4 19.6 12.1 19.2 11.9 18.6 12.4 18.3 12.8 18.1 13.5 18.2 13.9 18.2 15.1 18.2 16.2 18.2 17.4 18.2 23.3 18.2 29.2 18.2 35.1 18.2 35.1 18.2 35.1 18.1 35.1 18.1 34.3 17.6 33.7 16.7 33 16 31.3 14.3 29.7 12.6 28 11 28 10.8 28 10.5 28 10.3 28.2 10.2 28.4 10 28.5 9.9Z"/></svg>