<svg xmlns="http://www.w3.org/2000/svg" width="17px" height="15px"><path fill-rule="evenodd" fill="rgb(180, 187, 192)"
 d="M15.500,8.999 C14.671,8.999 14.000,8.328 14.000,7.499 C14.000,6.671 14.671,5.999 15.500,5.999 C16.328,5.999 17.000,6.671 17.000,7.499 C17.000,8.328 16.328,8.999 15.500,8.999 ZM15.500,2.999 C14.671,2.999 14.000,2.328 14.000,1.499 C14.000,0.671 14.671,-0.000 15.500,-0.000 C16.328,-0.000 17.000,0.671 17.000,1.499 C17.000,2.328 16.328,2.999 15.500,2.999 ZM8.500,14.999 C7.671,14.999 7.000,14.328 7.000,13.499 C7.000,12.671 7.671,11.999 8.500,11.999 C9.328,11.999 10.000,12.671 10.000,13.499 C10.000,14.328 9.328,14.999 8.500,14.999 ZM8.500,8.999 C7.671,8.999 7.000,8.328 7.000,7.499 C7.000,6.671 7.671,5.999 8.500,5.999 C9.328,5.999 10.000,6.671 10.000,7.499 C10.000,8.328 9.328,8.999 8.500,8.999 ZM8.500,2.999 C7.671,2.999 7.000,2.328 7.000,1.499 C7.000,0.671 7.671,-0.000 8.500,-0.000 C9.328,-0.000 10.000,0.671 10.000,1.499 C10.000,2.328 9.328,2.999 8.500,2.999 ZM1.500,14.999 C0.671,14.999 -0.000,14.328 -0.000,13.499 C-0.000,12.671 0.671,11.999 1.500,11.999 C2.328,11.999 3.000,12.671 3.000,13.499 C3.000,14.328 2.328,14.999 1.500,14.999 ZM1.500,8.999 C0.671,8.999 -0.000,8.328 -0.000,7.499 C-0.000,6.671 0.671,5.999 1.500,5.999 C2.328,5.999 3.000,6.671 3.000,7.499 C3.000,8.328 2.328,8.999 1.500,8.999 ZM1.500,2.999 C0.671,2.999 -0.000,2.328 -0.000,1.499 C-0.000,0.671 0.671,-0.000 1.500,-0.000 C2.328,-0.000 3.000,0.671 3.000,1.499 C3.000,2.328 2.328,2.999 1.500,2.999 ZM15.500,11.999 C16.328,11.999 17.000,12.671 17.000,13.499 C17.000,14.328 16.328,14.999 15.500,14.999 C14.671,14.999 14.000,14.328 14.000,13.499 C14.000,12.671 14.671,11.999 15.500,11.999 Z"/>
</svg>