<svg xmlns="http://www.w3.org/2000/svg" width="18px" height="15px"><path fill-rule="evenodd"  fill="rgb(112, 112, 112)"
 d="M5.000,13.999 L5.000,12.999 L18.000,12.999 L18.000,13.999 L5.000,13.999 ZM5.000,8.999 L18.000,8.999 L18.000,10.000 L5.000,10.000 L5.000,8.999 ZM5.000,4.999 L18.000,4.999 L18.000,5.999 L5.000,5.999 L5.000,4.999 ZM5.000,0.999 L18.000,0.999 L18.000,1.999 L5.000,1.999 L5.000,0.999 ZM1.500,14.999 C0.671,14.999 -0.000,14.327 -0.000,13.499 C-0.000,12.671 0.671,11.999 1.500,11.999 C2.328,11.999 3.000,12.671 3.000,13.499 C3.000,14.327 2.328,14.999 1.500,14.999 ZM1.500,10.999 C0.671,10.999 -0.000,10.328 -0.000,9.499 C-0.000,8.671 0.671,7.999 1.500,7.999 C2.328,7.999 3.000,8.671 3.000,9.499 C3.000,10.328 2.328,10.999 1.500,10.999 ZM1.500,6.999 C0.671,6.999 -0.000,6.328 -0.000,5.499 C-0.000,4.671 0.671,3.999 1.500,3.999 C2.328,3.999 3.000,4.671 3.000,5.499 C3.000,6.328 2.328,6.999 1.500,6.999 ZM1.500,2.999 C0.671,2.999 -0.000,2.328 -0.000,1.499 C-0.000,0.671 0.671,-0.001 1.500,-0.001 C2.328,-0.001 3.000,0.671 3.000,1.499 C3.000,2.328 2.328,2.999 1.500,2.999 Z"/>
</svg>