<svg xmlns="http://www.w3.org/2000/svg" width="19" height="23"><path d="M9.4 0C10.6 0.1 11.4 0.7 11.7 1.7 11.8 2.1 11.5 3.1 11.5 3.1 11.6 3.3 11.8 3.3 12 3.3 12.5 3.5 12.9 3.7 13.3 4 14.9 4.9 15.9 6.4 16.5 8.4 16.6 9 16.6 9.7 16.6 10.4 16.6 12.2 16.4 14.4 16.8 15.9 17.1 16.9 17.5 17.8 18.1 18.6 18.5 19.1 19 19.3 19 20.1 18.8 20.2 18.7 20.4 18.5 20.5 16.6 20.5 14.6 20.5 12.6 20.5 12.5 20.9 12.4 21.3 12.2 21.6 11.6 22.5 10 23.4 8.4 22.8 8.2 22.7 7.8 22.6 7.6 22.4 7.2 22.1 6.8 21.7 6.6 21.3 6.5 21 6.4 20.8 6.4 20.5 4.4 20.5 2.5 20.5 0.5 20.5 0.4 20.5 0.4 20.5 0.3 20.4 0.2 20.3 0.1 20.2 0 20.1 0 19.9 0 19.7 0.1 19.6 0.2 19.2 0.7 18.9 1 18.5 1.5 17.7 2 16.7 2.3 15.7 2.6 14.3 2.5 12.4 2.5 10.7 2.5 10.2 2.5 9.6 2.5 9.1 2.6 8.5 2.6 8 2.8 7.5 3.8 5.2 5.2 4.1 7.6 3.1 7 2 7.5 0.9 8.3 0.3 8.6 0.1 9.1 0.2 9.4 0ZM9.2 1.4C9.1 1.6 8.9 1.6 8.9 1.8 8.4 2.2 9 2.6 9.2 2.9 9.6 2.9 9.7 2.8 10 2.8 10.1 2.5 10.3 2.4 10.3 2 10.2 1.9 10.2 1.7 10 1.6 9.8 1.4 9.5 1.4 9.2 1.4ZM16.9 19.2C16.9 19.2 16.9 19.2 16.9 19.2 16.1 18.4 15.7 16.7 15.3 15.4 15.3 15.1 15.3 14.8 15.2 14.5 15.2 14.1 15.3 13.8 15.3 13.4 15.3 12.3 15.5 10.6 15.2 9.6 15.2 9.5 15.2 9.3 15.2 9.1 14.8 7.4 14.1 6.1 12.7 5.2 12.2 4.9 11.6 4.7 10.9 4.5 10.1 4.2 8.9 4.3 8.1 4.6 5.9 5.3 4.6 6.5 4 8.8 4 9.1 4 9.4 4 9.6 3.9 10 3.9 10.6 3.9 11.1 3.9 12 3.9 12.9 3.9 13.8 3.9 14.3 3.9 14.8 3.9 15.3 3.6 16.2 3.4 17.1 3.1 17.9 2.9 18.4 2.3 19.3 2.3 19.3L16.9 19.2ZM7.8 20.5C8.5 22 10.5 21.9 11.2 20.5 10.1 20.5 8.9 20.5 7.8 20.5Z"/></svg>