<svg xmlns="http://www.w3.org/2000/svg" width="25" height="18"><path d="M15.2 16.2C15.2 15.6 15.2 15 15.2 14.4 17.7 14.4 21.1 14.8 22.2 13.3 22.5 12.9 22.8 12.5 23 12 23.8 9.7 22.1 7.8 20.6 7.3 20 7.1 19.4 7.2 18.7 7.2 18.6 6.4 18.3 5.7 17.9 5.1 16.9 3.3 16 2.6 13.8 2 13.2 1.8 12.2 1.7 11.5 1.9 11.1 2 10.6 2.1 10.2 2.2 9.3 2.6 8.6 3.1 8 3.7 7.7 4 7.5 4.6 7.1 4.7 6.8 4.5 6 4.5 5.7 4.6 5 4.9 4.6 5.3 4.5 6.1 4.5 6.5 4.5 6.8 4.6 7.2 3 7.6 1.2 9.5 1.9 11.8 2.1 12.4 2.4 12.9 2.8 13.3 3.9 14.8 7.2 14.4 9.8 14.4 9.8 15 9.8 15.6 9.8 16.2 8 16.2 5.1 16.4 3.8 16 2.3 15.5 1.3 14.5 0.6 13.2 0.2 12.3-0.2 10.7 0.2 9.4 0.4 8.6 1.1 7.5 1.7 7 2 6.8 2.6 6.5 2.7 6 2.8 5.8 2.8 5.2 2.9 4.9 3.3 4.1 3.9 3.4 4.7 3 5 2.9 5.3 2.8 5.7 2.7 6 2.6 6.5 2.8 6.6 2.7 7 2.4 7.4 2 7.7 1.6 8.5 1.1 9.4 0.6 10.4 0.3 11.7-0.2 13.6 0 14.8 0.4 17.4 1.3 19 2.9 20 5.5 22.4 5.5 24.2 7.4 24.8 9.3 25.3 10.7 24.8 12.6 24.3 13.5 23.6 14.6 22.5 15.5 21.2 16 19.9 16.4 17 16.2 15.2 16.2ZM13.4 10.8C13.4 13.2 13.4 15.6 13.4 18 12.8 18 12.2 18 11.6 18 11.6 15.6 11.6 13.2 11.6 10.8 10.7 10.8 9.8 10.8 9 10.8 9 10.8 9 10.7 9 10.7 9.8 9.8 10.7 9 11.5 8.1 11.8 7.9 12.1 7.3 12.6 7.2 13.4 8.1 14.2 8.9 15.1 9.8 15.4 10.1 15.9 10.4 16 10.8 15.2 10.8 14.3 10.8 13.4 10.8Z"/></svg>